<?xml version="1.0" encoding="utf-8"?>
<!-- Generator: Adobe Illustrator 25.0.0, SVG Export Plug-In . SVG Version: 6.00 Build 0)  -->
<svg version="1.1" id="圖層_1" xmlns="http://www.w3.org/2000/svg" xmlns:xlink="http://www.w3.org/1999/xlink" x="0px" y="0px"
	 viewBox="0 0 163.1 17.6" style="enable-background:new 0 0 163.1 17.6;" xml:space="preserve">
<style type="text/css">
	.st0{fill:#E49239;}
	.st1{fill:#FFFFFF;}
</style>
<g>
	<path class="st0" d="M19,12.7v-0.2c0-0.6-0.2-1.1-0.4-1.6c-0.2-0.5-0.6-1-1-1.4c-0.4-0.3-0.9-0.6-1.3-0.8c0.1-0.1,0.3-0.1,0.4-0.2
		c0.3-0.2,0.7-0.4,0.9-0.7c0.3-0.3,0.5-0.6,0.7-1s0.3-0.8,0.3-1.2c0-0.4,0-0.8,0-1.2c0-0.4-0.1-0.8-0.3-1.2
		c-0.1-0.4-0.3-0.7-0.6-1.1c-0.5-0.6-1.2-1.1-1.9-1.4c-0.4-0.1-0.7-0.2-1.1-0.3c-0.1,0-0.2,0-0.3,0h-0.1h-0.1h-0.1h-0.5
		c-1.4,0-2.9,0-4.3,0.1C9.1,0.5,9,0.7,9,0.8C9,1,9.1,1.2,9.3,1.2s0.3,0,0.5,0v4.6L8.6,9.3L5.7,1.1h0.5c0.2,0,0.3-0.1,0.3-0.3
		S6.4,0.6,6.3,0.6H4.1c-0.1,0-0.2,0-0.2,0.1C3.8,0.8,3.8,0.9,3.8,1l3.1,9.1C6.6,9.8,6.3,9.6,5.7,9.5L2.6,0.8c0-0.1-0.1-0.2-0.3-0.2
		h-2C0.1,0.6,0,0.7,0,0.9s0.1,0.3,0.3,0.3h0.5L6.2,17l0.1,0.2l8.7,0.1l0,0l0,0c0.2,0,0.3-0.1,0.4-0.1c0.1,0,0.3-0.1,0.4-0.1
		c0.3-0.1,0.5-0.2,0.8-0.3c0.5-0.2,1-0.6,1.4-1c0.4-0.4,0.7-0.9,0.9-1.5c0.1-0.3,0.1-0.6,0.2-0.9c0-0.1,0-0.3,0-0.4L19,12.7z
		 M3.8,8.3L1.4,1.1h0.8l2.9,8.2C4.7,9.2,4.2,8.9,3.8,8.3z M17.1,2.7c0.4,0.5,0.6,1.1,0.7,1.8s0,1.3-0.3,1.9
		c-0.2,0.6-0.7,1.1-1.3,1.4C16,7.9,15.7,8,15.4,8.1c-0.2,0-0.3,0.1-0.5,0.1c-0.1,0-0.2,0-0.2,0l0,0l2.1-6.1
		C16.9,2.4,17,2.5,17.1,2.7z M10.3,1.2c0.3,0,0.7,0,1,0l-1,2.9V1.2z M4.5,1.1h0.7l3.1,9l0,0l-0.4,1.2L4.5,1.1z M6.8,16.5l5.1-15.3
		c0.1,0,0.2,0,0.4,0L7.1,16.5H6.8z M9.9,16.5l5.2-15.1c0.2,0,0.3,0.1,0.5,0.2s0.5,0.2,0.7,0.3l-5,14.6H9.9z M18.2,13.3
		c0,0.2-0.1,0.5-0.1,0.7c-0.1,0.4-0.4,0.8-0.7,1.2c-0.3,0.3-0.7,0.6-1.1,0.8c-0.2,0.1-0.4,0.2-0.7,0.3c-0.1,0-0.2,0.1-0.4,0.1
		c-0.1,0-0.2,0.1-0.3,0.1h-3.1l2.5-7.3h0.1c1,0.1,1.9,0.3,2.6,0.9c0.4,0.3,0.6,0.7,0.8,1.1c0.2,0.4,0.3,0.9,0.3,1.4v0.2V13
		C18.2,13.1,18.2,13.2,18.2,13.3z"/>
	<g>
		<path class="st1" d="M36,1.1v0.3h-1.7L38,12.9l3.8-11.5h-1.6V1.1h3.4v0.3H42l-5,15.4h-0.5l-5-15.3H30V1.1H36z"/>
		<path class="st1" d="M55.1,1.1v3.6h-0.2c-0.1-0.2-0.2-0.5-0.3-0.9S54.3,3.1,54,2.7S53.4,2,53,1.8c-0.4-0.3-0.9-0.4-1.5-0.4h-2.9V8
			h1c0.4,0,0.8-0.1,1.1-0.2s0.6-0.4,0.8-0.6c0.2-0.3,0.4-0.6,0.5-1s0.2-0.8,0.3-1.3h0.2v6.6h-0.2c-0.1-0.4-0.2-0.8-0.3-1.2
			s-0.3-0.7-0.5-1s-0.4-0.5-0.7-0.7s-0.6-0.3-1.1-0.3h-1.2v7.6h2.9c0.6,0,1-0.1,1.5-0.3c0.4-0.2,0.8-0.5,1.2-0.9
			c0.3-0.4,0.6-0.9,0.9-1.4c0.2-0.5,0.4-1.1,0.5-1.7h0.2v4.6H44.4v-0.3H46V1.4h-1.7V1.1H55.1z"/>
		<path class="st1" d="M57.8,1.4V1.1h2.7c0.5,0,1,0,1.5,0s1,0,1.5,0s1,0.1,1.5,0.2s1,0.3,1.4,0.6s0.8,0.6,1.1,1.1
			c0.3,0.5,0.4,1,0.4,1.8c0,0.6-0.1,1-0.3,1.4c-0.2,0.4-0.5,0.7-0.8,1s-0.7,0.4-1.1,0.6c-0.4,0.1-0.8,0.2-1.2,0.3v0.1
			c0.6,0.1,1.1,0.3,1.6,0.4s0.9,0.3,1.2,0.6c0.3,0.3,0.6,0.6,0.8,1.1c0.2,0.5,0.3,1.1,0.4,1.8c0.1,0.9,0.1,1.6,0.1,2.1
			s0.1,1,0.2,1.2c0.1,0.3,0.2,0.5,0.3,0.6c0.1,0.1,0.3,0.1,0.5,0.1s0.4-0.1,0.6-0.2c0.2-0.2,0.3-0.3,0.4-0.5l0.2,0.2
			c-0.1,0.1-0.2,0.3-0.4,0.4c-0.1,0.1-0.2,0.2-0.4,0.3c-0.1,0.1-0.3,0.2-0.5,0.2s-0.5,0.1-0.8,0.1c-0.7,0-1.2-0.1-1.5-0.4
			c-0.4-0.2-0.6-0.6-0.8-0.9c-0.2-0.4-0.3-0.8-0.3-1.2S66,13.3,66,12.9c0-0.6-0.1-1.1-0.1-1.7c0-0.5-0.1-1-0.3-1.4
			c-0.2-0.4-0.4-0.8-0.7-1c-0.3-0.3-0.7-0.4-1.3-0.4H62V16h1.7v0.3h-5.9V16h1.7V1.4H57.8z M62.8,8c0.5,0,1-0.1,1.3-0.3
			c0.3-0.2,0.5-0.4,0.7-0.7c0.2-0.3,0.3-0.6,0.3-1s0.1-0.7,0.1-1.1c0-0.6,0-1.2-0.1-1.6s-0.2-0.8-0.4-1.1c-0.2-0.3-0.4-0.5-0.7-0.6
			s-0.7-0.2-1.1-0.2c-0.1,0-0.3,0-0.4,0c-0.1,0-0.3,0-0.4,0V8H62.8z"/>
		<path class="st1" d="M77.2,1.1v0.3h-1.7v14.5h1.7v0.3h-5.9v-0.3H73V1.4h-1.7V1.1H77.2z"/>
		<path class="st1" d="M79,1.4V1.1h10.6v3.6h-0.2c-0.2-0.5-0.4-1-0.5-1.4c-0.2-0.4-0.4-0.8-0.7-1c-0.3-0.3-0.6-0.5-0.9-0.7
			c-0.4-0.2-0.8-0.2-1.2-0.2h-2.7v6.8h1c0.4,0,0.8-0.1,1.1-0.2c0.3-0.1,0.6-0.4,0.8-0.6c0.2-0.3,0.4-0.6,0.5-1s0.2-0.8,0.3-1.3h0.2
			v6.6h-0.2c-0.1-0.4-0.2-0.8-0.3-1.2c-0.1-0.4-0.3-0.7-0.5-1C86,9.2,85.8,9,85.5,8.8s-0.6-0.3-1.1-0.3h-1.2v7.4h1.7v0.3H79v-0.3
			h1.7V1.4H79z"/>
		<path class="st1" d="M96.6,1.1v0.3h-1.4l3.7,7.4l3.3-7.4h-1.6V1.1h3.4v0.3h-1.6L99,9.2v6.7h1.7v0.3h-5.9v-0.3h1.7V10l-4.2-8.6
			h-1.4V1.1H96.6z"/>
		<path class="st1" d="M110.6,1.4V1.1h2.7c0.5,0,1,0,1.5,0s1,0,1.5,0s1,0.1,1.5,0.2s1,0.3,1.4,0.6s0.8,0.6,1.1,1.1
			c0.3,0.5,0.4,1,0.4,1.7c0,0.6-0.1,1.1-0.4,1.5s-0.6,0.8-1,1c-0.4,0.3-0.8,0.5-1.2,0.6C117.7,7.9,117.3,8,117,8v0.1
			c0.5,0,1,0.1,1.5,0.3s1,0.4,1.4,0.7s0.8,0.7,1,1.2c0.3,0.5,0.4,1.1,0.4,1.9c0,0.8-0.2,1.5-0.5,2c-0.4,0.5-0.8,1-1.3,1.3
			s-1.1,0.5-1.6,0.6c-0.6,0.1-1.1,0.2-1.5,0.2c-0.5,0-1,0-1.5,0s-1,0-1.5,0h-2.7V16h1.7V1.4H110.6z M115.6,8c0.5,0,1-0.1,1.3-0.3
			c0.3-0.2,0.5-0.4,0.7-0.7c0.2-0.3,0.3-0.6,0.3-1s0.1-0.7,0.1-1.1c0-0.6,0-1.2-0.1-1.6s-0.2-0.8-0.4-1.1c-0.2-0.3-0.4-0.5-0.7-0.6
			c-0.3-0.1-0.7-0.2-1.1-0.2c-0.1,0-0.3,0-0.4,0s-0.3,0-0.4,0V8H115.6z M115.9,16c0.4,0,0.7-0.1,1-0.2c0.3-0.1,0.6-0.3,0.8-0.6
			c0.2-0.3,0.4-0.7,0.5-1.2s0.2-1.2,0.2-2.1c0-0.2,0-0.6-0.1-1c0-0.4-0.1-0.8-0.3-1.2c-0.2-0.4-0.4-0.7-0.7-1
			c-0.3-0.3-0.8-0.4-1.4-0.4h-1v7.6C115.2,15.9,115.5,16,115.9,16z"/>
		<path class="st1" d="M123.8,15.9l5.4-15.3h0.5l5.7,15.3h1.5v0.3h-6v-0.3h1.7l-2.1-5.7h-4.3l-2,5.7h1.6v0.3h-3.4v-0.3
			C122.4,15.9,123.8,15.9,123.8,15.9z M126.2,9.9h4.1l-2.1-5.8L126.2,9.9z"/>
		<path class="st1" d="M148.3,5.5c-0.3-1.4-0.8-2.5-1.4-3.2c-0.6-0.8-1.5-1.1-2.5-1.1c-0.8,0-1.5,0.2-2,0.6s-0.9,0.9-1.2,1.5
			s-0.4,1.3-0.5,2c-0.1,0.8-0.1,1.5-0.1,2.3v1.8c0,1.3,0.1,2.4,0.2,3.2c0.1,0.9,0.4,1.6,0.7,2.1s0.7,0.9,1.2,1.2
			c0.5,0.2,1.1,0.3,1.7,0.3c0.6,0,1-0.1,1.3-0.3c0.3-0.2,0.6-0.5,0.7-1c0.2-0.4,0.3-0.9,0.3-1.4s0.1-2.5,0.1-3.1V9.5H145V9.2h5.5
			v0.3h-1.2v6.2H149c0-0.2-0.1-0.3-0.2-0.4c-0.1-0.1-0.2-0.1-0.4-0.1c-0.3,0-0.6,0.1-0.8,0.2c-0.3,0.1-0.5,0.3-0.8,0.4
			s-0.6,0.3-1,0.4s-0.9,0.2-1.4,0.2c-0.9,0-1.7-0.2-2.5-0.6c-0.8-0.4-1.5-1-2.1-1.6c-0.6-0.7-1.1-1.5-1.5-2.5
			c-0.4-0.9-0.6-2-0.6-3.1c0-1.2,0.2-2.3,0.6-3.3c0.4-1,0.9-1.8,1.6-2.5s1.4-1.2,2.2-1.6s1.6-0.6,2.3-0.6c0.4,0,0.7,0,1,0.1
			s0.6,0.2,0.9,0.3c0.3,0.1,0.5,0.2,0.8,0.3c0.2,0.1,0.4,0.1,0.6,0.1c0.2,0,0.3,0,0.4-0.1c0.1-0.1,0.1-0.2,0.2-0.3h0.3v4.3h-0.3V5.5
			z"/>
		<path class="st1" d="M152.6,11.5c0,0.2,0.1,0.4,0.1,0.7c0.1,0.3,0.1,0.6,0.3,0.9c0.1,0.3,0.3,0.6,0.4,1c0.2,0.3,0.4,0.6,0.6,0.9
			c0.3,0.3,0.5,0.6,0.8,0.7c0.3,0.2,0.5,0.3,0.7,0.4c0.2,0.1,0.5,0.1,0.7,0.1s0.4,0,0.6,0c0.6,0,1.2-0.1,1.6-0.3
			c0.4-0.2,0.7-0.5,1-0.9c0.2-0.3,0.4-0.7,0.5-1.1c0.1-0.4,0.1-0.7,0.1-1c0-0.5-0.1-1-0.3-1.3s-0.5-0.6-0.8-0.8s-0.7-0.4-1.2-0.6
			c-0.4-0.2-0.9-0.3-1.4-0.5s-0.9-0.4-1.4-0.6c-0.4-0.2-0.8-0.5-1.2-0.8c-0.3-0.3-0.6-0.8-0.8-1.3s-0.3-1.1-0.3-1.9
			c0-0.6,0.1-1.1,0.3-1.6s0.5-1,0.9-1.4s0.8-0.7,1.4-1s1.1-0.4,1.7-0.4c0.4,0,0.7,0,1,0.1s0.6,0.2,0.8,0.3c0.2,0.1,0.4,0.2,0.6,0.3
			c0.2,0.1,0.3,0.1,0.5,0.1s0.3,0,0.3-0.1c0.1-0.1,0.1-0.2,0.2-0.3h0.3v4h-0.2c-0.1-0.5-0.3-1-0.5-1.5s-0.4-0.9-0.6-1.3
			c-0.3-0.4-0.6-0.7-1-0.9S157.4,1,156.8,1c-0.5,0-0.9,0.1-1.3,0.2c-0.4,0.2-0.7,0.4-0.9,0.6c-0.3,0.3-0.4,0.5-0.6,0.8
			s-0.2,0.6-0.2,1c0,0.5,0.1,0.9,0.3,1.2s0.5,0.6,0.9,0.8c0.4,0.2,0.8,0.4,1.2,0.6c0.5,0.2,0.9,0.3,1.4,0.5s1,0.4,1.4,0.6
			c0.5,0.2,0.9,0.5,1.2,0.8c0.4,0.3,0.6,0.7,0.9,1.2c0.2,0.5,0.3,1.1,0.3,1.8s-0.1,1.3-0.4,2c-0.2,0.6-0.6,1.2-1,1.6
			c-0.4,0.5-1,0.8-1.6,1.1c-0.6,0.3-1.3,0.4-2,0.4c-0.4,0-0.7,0-1.1-0.1c-0.4-0.1-0.7-0.2-1-0.3s-0.6-0.2-0.8-0.3s-0.4-0.1-0.5-0.1
			c-0.2,0-0.3,0-0.4,0.1c-0.1,0.1-0.1,0.2-0.2,0.4h-0.3v-4.7h0.5V11.5z"/>
	</g>
</g>
</svg>
